<?xml version="1.0" encoding="utf-8"?>
<!-- Generator: Adobe Illustrator 26.2.1, SVG Export Plug-In . SVG Version: 6.00 Build 0)  -->
<svg version="1.1" id="Layer_1" xmlns="http://www.w3.org/2000/svg" xmlns:xlink="http://www.w3.org/1999/xlink" x="0px" y="0px"
	 viewBox="0 0 819.5 124.6" style="enable-background:new 0 0 819.5 124.6;" xml:space="preserve">
<style type="text/css">
	.st0{fill:#FFFFFF;stroke:#9477AB;stroke-width:2;stroke-miterlimit:10;}
	.st1{fill:#FFFFFF;stroke:#9477AB;stroke-miterlimit:10;}
	.st2{fill:#9477AB;stroke:#FFFFFF;stroke-width:2;stroke-miterlimit:10;}
	.st3{fill:#FFFFFF;}
</style>
<path class="st0" d="M44.1,107.7c3.6-3,22.2-19.2,21.5-44.4c-0.6-24.4-19-39.8-22.8-42.8"/>
<path class="st0" d="M44,107.5c-1.4-1.2-4.9-4-8.7-8.5c-6.4-7.3-13.7-19-14.1-34.3c-0.7-25.1,17.9-41.4,21.5-44.4l0.1-13.1"/>
<path class="st1" d="M12.7,120.2c0,0-1.2-13.2,19.8-24.1l-5.6-8.8C26.9,87.3,8.4,107.3,12.7,120.2z"/>
<path class="st1" d="M75.1,120.2c0,0,1.2-13.2-19.8-24.1l5.6-8.8C60.9,87.3,79.4,107.3,75.1,120.2z"/>
<path class="st2" d="M43.5,83.7h-0.3c-1,0-1.9-0.7-1.9-1.5V40.4c0-0.8,0.8-1.5,1.9-1.5h0.3c1,0,1.9,0.7,1.9,1.5v41.8
	C45.4,83.1,44.6,83.7,43.5,83.7z"/>
<path class="st2" d="M50.6,52H36.2c-1,0-1.8-0.7-1.8-1.5v-0.2c0-0.8,0.8-1.5,1.8-1.5h14.4c1,0,1.8,0.7,1.8,1.5v0.2
	C52.4,51.3,51.6,52,50.6,52z"/>
<path class="st2" d="M50.6,58.3H36.2c-1,0-1.8-0.7-1.8-1.5v-0.2c0-0.8,0.8-1.5,1.8-1.5h14.4c1,0,1.8,0.7,1.8,1.5v0.2
	C52.4,57.7,51.6,58.3,50.6,58.3z"/>
<path class="st2" d="M50.6,64.4H36.2c-1,0-1.8-0.7-1.8-1.5v-0.2c0-0.8,0.8-1.5,1.8-1.5h14.4c1,0,1.8,0.7,1.8,1.5V63
	C52.4,63.8,51.6,64.4,50.6,64.4z"/>
<path class="st2" d="M50.6,70.7H36.2c-1,0-1.8-0.7-1.8-1.5V69c0-0.8,0.8-1.5,1.8-1.5h14.4c1,0,1.8,0.7,1.8,1.5v0.2
	C52.4,70.1,51.6,70.7,50.6,70.7z"/>
<path class="st2" d="M50.6,77H36.2c-1,0-1.8-0.7-1.8-1.5v-0.2c0-0.8,0.8-1.5,1.8-1.5h14.4c1,0,1.8,0.7,1.8,1.5v0.2
	C52.4,76.4,51.6,77,50.6,77z"/>
<ellipse class="st0" cx="42.7" cy="5.5" rx="3.4" ry="2.7"/>
<g>
	<path class="st3" d="M117.1,30.2c10.8,0,18.2,4.7,24.2,12.1l-9.5,10.5c-3.9-4.5-9-7.4-14.7-7.4c-10.1,0-16.5,8.8-16.5,20
		s6.5,20,16.5,20c5.7,0,10.8-2.9,14.7-7.4l9.3,10.5c-5.7,6.9-13.5,12.1-23.9,12.1c-17.9,0-30.7-15.5-30.7-35.3S99.1,30.2,117.1,30.2
		z M117.1,97.6c8.3,0,14.5-3.1,19.8-8.8l-5.3-6.4c-3.4,3.5-8.8,6-14.5,6C105,88.4,97,78.3,97,65.3s8-23.1,20.1-23.1
		c5.3,0,10.5,2.3,14.6,5.9l5.3-6c-5-5.9-11.5-9-20-9c-15.7,0-27.2,14.2-27.2,32.2C89.9,83.4,101.3,97.6,117.1,97.6z M90.9,63.1H96
		l-0.1,0.5h-5.1L90.9,63.1z M90.8,65.3h5.1v0.5h-5.1V65.3z M90.8,67.5h5.1L96,68h-5.1L90.8,67.5z M91,60.9h5.2L96,61.4h-5.1L91,60.9
		z M91,69.7h5.1l0.2,0.5h-5.2L91,69.7z M91.4,58.6h5.3l-0.2,0.5h-5.2L91.4,58.6z M91.3,71.9h5.2l0.2,0.5h-5.2L91.3,71.9z M91.9,56.4
		h5.3L97,56.9h-5.3L91.9,56.4z M91.7,74.1H97l0.2,0.5H92L91.7,74.1z M92.4,54.2h5.7l-0.3,0.5h-5.4L92.4,54.2z M92.3,76.3h5.4
		l0.3,0.5h-5.7L92.3,76.3z M93.1,52H99l-0.3,0.5h-5.8L93.1,52z M93,78.5h5.8l0.3,0.5h-5.9L93,78.5z M94.2,49.8h6.4l-0.3,0.5h-6.4
		L94.2,49.8z M93.9,80.7h6.2l0.5,0.5h-6.4L93.9,80.7z M95.3,47.6h6.9l-0.6,0.5h-6.8L95.3,47.6z M95.1,82.9h6.8l0.5,0.5h-6.9
		L95.1,82.9z M96.7,45.4h7.9l-0.7,0.6h-7.6L96.7,45.4z M96.5,85.1h7.5l0.6,0.5h-7.9L96.5,85.1z M98.4,43.2h9.9l-1.3,0.5h-9
		L98.4,43.2z M107.4,87.3l0.9,0.5h-9.7l-0.5-0.5H107.4z M100.6,41H117v0.2l-3.7,0.3H99.8L100.6,41z M114,89.4c0.9,0,2.2,0.1,3.1,0.2
		V90h-16.2l-0.6-0.5L114,89.4L114,89.4z M103.3,38.8H117v0.5h-14.4L103.3,38.8z M117.1,91.6v0.5h-13.6l-0.7-0.5H117.1z M107.2,36.6
		h9.8v0.5h-11L107.2,36.6z M117.1,93.8v0.5h-9.6l-1.3-0.5H117.1z M117.1,34.5V35h-4.9C113.8,34.6,114.3,34.5,117.1,34.5z M117.1,96
		v0.3h-0.2l-4.3-0.3H117.1z"/>
	<path class="st3" d="M148,32.4h36.4v14.3h-22.7v14.1h20.8v14.1h-20.8v23.6h-13.9v-66L148,32.4L148,32.4z M158.4,95.4V71.9h20.8V64
		h-20.8V43.6h22.7v-8.1h-29.5v60L158.4,95.4L158.4,95.4z M152.7,37.1H180v0.5h-26.7L152.7,37.1z M154.7,39.3H180v0.5h-24.9
		L154.7,39.3z M156.5,41.5H180V42h-23L156.5,41.5z M158.4,65.4h19.9v0.5h-19.9V65.4z M158.4,67.6h19.9v0.5h-19.9V67.6z M158.4,69.8
		h19.9v0.5h-19.9V69.8z"/>
	<path class="st3" d="M190.2,32.4H213c9.4,0,17,8.1,17,18.5c0,6.2-2.2,10-6.1,13.5v0.2c5.8,4.8,8.3,9.4,8.3,16.3
		c0,9.1-6.2,17.5-17,17.5h-25V32.4L190.2,32.4z M215.2,95.4c8.6,0,13.5-6.9,13.5-14.4c0-5.7-2.7-11.4-9.1-15.7v-0.9
		c5.3-3.6,6.9-8.1,6.9-13.4c0-8.6-6-15.4-13.5-15.4h-19.3v60L215.2,95.4L215.2,95.4z M200.5,37.1h15.3l1.7,0.5h-17V37.1L200.5,37.1z
		 M200.5,39.1H220l-0.1-0.1l0.8,0.7h-20.2V39.1z M200.5,41.3h21.8l0.3,0.5h-22.2L200.5,41.3L200.5,41.3z M200.5,43.4h10.1
		c5.3,0,8.9,4,8.9,9.1c0,5.5-3.7,9.2-8.9,9.2h-10.1V43.4z M200.5,63.2h19l-0.7,0.5h-18.3V63.2L200.5,63.2z M200.5,65.4h17.8l0.7,0.5
		h-18.5V65.4z M200.5,67.6H221l0.5,0.4h-20.9L200.5,67.6L200.5,67.6z M200.5,69.5h11.9c5.3,0,8.8,4.1,8.8,8.9c0,5.4-3.5,8.8-8.8,8.8
		h-11.9V69.5z M200.5,89.2h24.8l-0.5,0.5h-24.2L200.5,89.2L200.5,89.2z M200.5,91.4h22.7l-0.7,0.5h-22.1v-0.5H200.5z M200.5,93.6
		h18.6l-3.9,0.5h-14.7L200.5,93.6L200.5,93.6z M210.6,58.8c3.2,0,5.4-2.5,5.4-6.2c0-3.4-2.2-6-5.4-6H204v12.2H210.6z M212.4,84.1
		c3.2,0,5.3-2.2,5.3-5.7c0-3.2-2.1-5.8-5.3-5.8h-8.3v11.5H212.4z M223.7,43.5l0.2,0.5h-7.5l-1-0.5H223.7z M216.9,61h5.1l-0.6,0.5
		h-5.1L216.9,61z M217.4,87.1h8.9l-0.2,0.4h-9.5L217.4,87.1z M223.1,69.7l0.5,0.5h-5.1l-0.7-0.5H223.1z M218.1,45.7h6.5l0.2,0.5
		h-6.2L218.1,45.7z M218.8,58.8h4.7l-0.3,0.5h-4.9L218.8,58.8z M219.5,47.9h5.8v0.4h-5.7L219.5,47.9z M219.9,84.9h7.3l-0.2,0.5h-7.5
		L219.9,84.9z M219.9,56.6h4.6l-0.3,0.7h-4.6L219.9,56.6z M224.8,71.9l0.3,0.5h-4.9l-0.5-0.5H224.8z M220.2,50h5.3v0.5h-5.2
		L220.2,50z M220.4,54.4h4.9L225,55h-4.9L220.4,54.4z M220.5,52.2h5v0.5h-5V52.2z M221.2,82.7h6.4l-0.2,0.5h-6.5L221.2,82.7z
		 M225.9,74.1l0.3,0.5h-4.9l-0.3-0.5H225.9z M221.9,80.6h5.8v0.5h-5.9L221.9,80.6z M221.9,76.3h5l0.2,0.5H222L221.9,76.3z
		 M222.1,78.4h5.3v0.5h-5.3V78.4z"/>
</g>
<g>
	<path class="st3" d="M273.7,46.7H261V32.4h39.5v14.3h-12.8v51.7h-13.9L273.7,46.7L273.7,46.7z M284.1,95.4V43.6H297v-8.1h-32.4v8.1
		h12.7v51.7L284.1,95.4L284.1,95.4z M265.4,37.2h30.5v0.5h-30.5V37.2z M265.4,39.4h30.5v0.5h-30.5V39.4z M265.4,41.6h30.5v0.5h-30.5
		V41.6z"/>
	<path class="st3" d="M306.8,32.4h13.9v66.1h-13.9V32.4z M317.2,95.4V35.5h-6.8v60L317.2,95.4L317.2,95.4z M311.2,36.5h5V37h-5V36.5
		z M311.2,38.7h5v0.5h-5V38.7z M311.2,40.9h5v0.5h-5V40.9z M311.2,43.1h5v0.5h-5V43.1z M311.2,45.3h5v0.5h-5V45.3z M311.2,47.5h5V48
		h-5V47.5z M311.2,49.7h5v0.5h-5V49.7z M311.2,51.9h5v0.5h-5V51.9z M311.2,54.1h5v0.5h-5V54.1z M311.2,56.3h5v0.5h-5V56.3z
		 M311.2,58.5h5V59h-5V58.5z M311.2,60.8h5v0.5h-5V60.8z M311.2,63h5v0.5h-5V63z M311.2,65.2h5v0.5h-5V65.2z M311.2,67.4h5v0.5h-5
		V67.4z"/>
	<path class="st3" d="M329.7,32.4h13l14.5,35.7l14.5-35.7h12.7v66.1h-13.8V69.1l-12.4,31.6H356l-12.4-31.9v29.7h-13.9V32.4z
		 M340,95.4V55.2h1.6L357,94l15.6-38.8h1.3v40.2h6.8V35.5h-6.8l-15.5,38.7h-2.7l-15.5-38.7h-7.1v60h6.8v-0.1H340z M334.6,36.7h5
		l0.2,0.5h-4.9L334.6,36.7z M335.5,38.9h4.9l0.2,0.5h-4.9L335.5,38.9z M336.4,41.1h4.9l0.2,0.5h-4.9L336.4,41.1z M337.5,43.3h4.9
		l0.2,0.5h-4.7L337.5,43.3z M338.4,45.5h4.9l0.2,0.5h-4.7L338.4,45.5z M339.4,47.7h4.6l0.2,0.5h-4.5L339.4,47.7z M340.4,49.9h4.5
		l0.2,0.5h-4.4L340.4,49.9z M341.3,52.1h4.4l0.2,0.5h-4.3L341.3,52.1z M342.2,54.3h4.3l0.3,0.5h-4.3L342.2,54.3z M343.1,56.5h4.3
		l0.2,0.5h-4.3L343.1,56.5z M344.2,58.8h4.3l0.3,0.5h-4.3L344.2,58.8z M345,61h4.3l0.2,0.5h-4.3L345,61z M345.8,63.2h4.4l0.2,0.5
		h-4.3L345.8,63.2z M346.7,65.4h4.3l0.2,0.5H347L346.7,65.4z M347.7,67.6h4.3l0.2,0.5h-4.3L347.7,67.6z M348.5,69.8h4.4l0.2,0.5
		h-4.3L348.5,69.8z M349.3,72h4.4l0.2,0.5h-4.4L349.3,72z M350.3,74.2h4.3l0.3,0.5h-4.3L350.3,74.2z M351.1,76.4h4.3l0.3,0.5h-4.3
		L351.1,76.4z M351.9,78.6h4.4l0.3,0.5h-4.4L351.9,78.6z M357.4,80.8l0.3,0.5h-4.5l-0.3-0.5H357.4z M358.3,83l0.3,0.5H354l-0.3-0.5
		H358.3z M359.1,85.2l0.3,0.3l-0.2,0.3h-4.3l-0.3-0.7L359.1,85.2L359.1,85.2z M358.6,87.4l-0.3,0.5h-2.7l-0.3-0.5H358.6z
		 M357.8,89.6l-0.3,0.5h-0.9l-0.3-0.5H357.8z M357.4,91.5l-0.3,0.5l-0.3-0.5H357.4z M375,36.7h4.9v0.5H375V36.7z M375,38.9h4.9v0.5
		H375V38.9z M375,41.1h4.9v0.5H375V41.1z M375,43.3h4.9v0.5H375V43.3z M375,45.5h4.9V46H375V45.5z M375,47.7h4.9v0.5H375V47.7z
		 M375,49.9h4.9v0.5H375V49.9z M375,52.1h4.9v0.5H375V52.1z M375,54.3h4.9v0.5H375V54.3z M375,56.5h4.9V57H375V56.5z M375,58.8h4.9
		v0.5H375V58.8z M375,61h4.9v0.5H375V61z M375,63.2h4.9v0.5H375V63.2z M375,65.4h4.9v0.5H375V65.4z M375,67.6h4.9v0.5H375V67.6z
		 M375,69.8h4.9v0.5H375V69.8z M375,72h4.9v0.5H375V72z M375,74.2h4.9v0.5H375V74.2z M375,76.4h4.9v0.5H375V76.4z M375,78.6h4.9v0.5
		H375V78.6z M375,80.8h4.9v0.5H375V80.8z M375,83h4.9v0.5H375V83z M375,85.2h4.9v0.5H375V85.2z M375,87.4h4.9v0.5H375V87.4z
		 M375,89.6h4.9v0.5H375V89.6z M375,91.8h4.9v0.5H375V91.8z M375,94h4.9v0.4H375V94z"/>
	<path class="st3" d="M393.3,32.4h37.5v14.3h-23.6v11.9H429v14.1h-21.8v11.9h24.6v13.8h-38.5L393.3,32.4L393.3,32.4z M428.3,95.4
		v-7.7h-24.6v-18h21.9v-7.9h-21.8V43.6h23.6v-8.1H397v60h31.4v-0.1H428.3z M398.6,93.5h28.8V94h-29.3L398.6,93.5z M398.1,37.1h28.2
		v0.5h-27.8L398.1,37.1z M400.1,39.3h26.3v0.5h-25.8L400.1,39.3z M400.5,91.3h26.8v0.5H400L400.5,91.3z M401.9,41.5h24.4V42h-23.9
		L401.9,41.5z M402.5,89.1h24.9v0.5h-25.5L402.5,89.1z M403.8,63.2h20.8v0.5h-20.8V63.2z M403.8,65.4h20.8v0.5h-20.8V65.4z
		 M403.8,67.6h20.8v0.5h-20.8V67.6z"/>
</g>
<g>
	<path class="st3" d="M454.9,33.4h13l14.3,35.7l14.5-35.7h12.7v66.1h-13.8V70.1l-12.3,31.6H481l-12.4-31.9v29.7h-13.9V33.4H454.9z
		 M465.2,96.5V56.3h1.6l15.4,38.8l15.6-38.8h1.3v40.2h6.8v-60h-6.8l-15.5,38.7h-2.7l-15.5-38.7h-7.1v60H465.2z M459.8,37.7h5
		l0.2,0.5h-4.9L459.8,37.7z M460.7,39.9h4.9l0.2,0.5h-4.9L460.7,39.9z M461.6,42.1h4.9l0.2,0.5h-4.9L461.6,42.1z M462.5,44.4h4.9
		l0.2,0.5h-4.7L462.5,44.4z M463.6,46.6h4.9l0.2,0.5H464L463.6,46.6z M464.6,48.8h4.6l0.2,0.5h-4.6L464.6,48.8z M465.5,51h4.5
		l0.2,0.5h-4.4L465.5,51z M466.5,53.2h4.4l0.2,0.5h-4.3L466.5,53.2z M467.4,55.4h4.3L472,56h-4.3L467.4,55.4z M468.3,57.6h4.3
		l0.2,0.5h-4.3L468.3,57.6z M469.2,59.8h4.3l0.3,0.5h-4.3L469.2,59.8z M470.2,62h4.3l0.2,0.5h-4.3L470.2,62z M471,64.2h4.3l0.2,0.5
		h-4.3L471,64.2z M471.8,66.4h4.3l0.2,0.5H472L471.8,66.4z M472.7,68.6h4.3l0.2,0.5h-4.3L472.7,68.6z M473.6,70.8h4.3l0.2,0.5h-4.3
		L473.6,70.8z M474.4,73h4.4l0.2,0.5h-4.3L474.4,73z M475.4,75.2h4.3l0.3,0.5h-4.3L475.4,75.2z M476.3,77.4h4.3l0.3,0.5h-4.3
		L476.3,77.4z M477.1,79.6h4.4l0.3,0.5h-4.4L477.1,79.6z M482.4,81.8l0.3,0.5h-4.5l-0.3-0.5H482.4z M483.5,84.1l0.3,0.5h-4.6
		l-0.3-0.5H483.5z M484.3,86.3l0.3,0.3l-0.2,0.3h-4.3l-0.3-0.7L484.3,86.3L484.3,86.3z M483.8,88.5l-0.3,0.5h-2.7l-0.3-0.5H483.8z
		 M482.9,90.7l-0.3,0.5h-0.9l-0.3-0.5H482.9z M482.5,92.6l-0.3,0.5l-0.3-0.5H482.5z M500.1,37.7h4.9v0.5h-4.9V37.7z M500.1,39.9h4.9
		v0.5h-4.9V39.9z M500.1,42.1h4.9v0.5h-4.9V42.1z M500.1,44.4h4.9V45h-4.9V44.4z M500.1,46.6h4.9v0.5h-4.9V46.6z M500.1,48.8h4.9
		v0.5h-4.9V48.8z M500.1,51h4.9v0.5h-4.9V51z M500.1,53.2h4.9v0.5h-4.9V53.2z M500.1,55.4h4.9V56h-4.9V55.4z M500.1,57.6h4.9v0.5
		h-4.9V57.6z M500.1,59.8h4.9v0.5h-4.9V59.8z M500.1,62h4.9v0.5h-4.9V62z M500.1,64.2h4.9v0.5h-4.9V64.2z M500.1,66.4h4.9v0.5h-4.9
		V66.4z M500.1,68.6h4.9v0.5h-4.9V68.6z M500.1,70.8h4.9v0.5h-4.9V70.8z M500.1,73h4.9v0.5h-4.9V73z M500.1,75.2h4.9v0.5h-4.9V75.2z
		 M500.1,77.4h4.9v0.5h-4.9V77.4z M500.1,79.6h4.9v0.5h-4.9V79.6z M500.1,81.8h4.9v0.5h-4.9V81.8z M500.1,84.1h4.9v0.5h-4.9V84.1z
		 M500.1,86.3h4.9v0.5h-4.9V86.3z M500.1,88.5h4.9V89h-4.9V88.5z M500.1,90.7h4.9v0.5h-4.9V90.7z M500.1,92.9h4.9v0.5h-4.9V92.9z
		 M500.1,95.1h4.9v0.4h-4.9V95.1z"/>
	<path class="st3" d="M543.1,31.2h2.4l27.8,68.3h-14.9l-2.9-6.8h-22.3l-2.8,6.8h-14.9L543.1,31.2z M527.8,96.5l15.8-39.9h1.3
		l15.6,39.9h7.6L544,37.2l-23.8,59.3H527.8L527.8,96.5z M526.6,83.4h5.2l-0.3,0.5h-5.2L526.6,83.4z M527.4,81.2h5.2l-0.3,0.5h-5.1
		L527.4,81.2z M528.4,78.9h5.1l-0.3,0.5H528L528.4,78.9z M529.3,76.7h5.1l-0.3,0.5h-5L529.3,76.7z M530.2,74.5h5.1L535,75h-5.1
		L530.2,74.5z M531,72.3h5.1l-0.3,0.5h-5L531,72.3z M531.8,70.1h5.1l-0.3,0.5h-5L531.8,70.1z M532.9,67.9h5.1l-0.3,0.5h-5.1
		L532.9,67.9z M533.7,65.7h5.1l-0.3,0.5h-5L533.7,65.7z M554.3,89.8l-2.2-5.5h-16l-2.1,5.5H554.3z M534.6,63.5h5.1l-0.3,0.5h-5.1
		L534.6,63.5z M535.4,61.3h5.1l-0.3,0.5h-5L535.4,61.3z M536.5,59.1h5.1l-0.3,0.5h-5.1L536.5,59.1z M536.5,87.8h15.3l0.2,0.5h-15.6
		L536.5,87.8z M537.3,56.9h5.1l-0.3,0.5h-5L537.3,56.9z M537.3,85.6H551l0.3,0.5h-14.1L537.3,85.6z M550.7,81l-6.4-16.6h-0.2
		L537.6,81H550.7z M538.2,54.7h11.9l0.3,0.5H538L538.2,54.7z M539,52.5h10.3l0.2,0.5h-10.6L539,52.5z M539.9,50.3h8.4l0.3,0.5h-8.9
		L539.9,50.3z M540.9,48.2h6.7l0.2,0.5h-7.2L540.9,48.2z M541.7,46h4.9l0.3,0.5h-5.3L541.7,46z M542.6,43.8h3.1l0.2,0.5h-3.6
		L542.6,43.8z M543.5,41.5h1.3l0.3,0.5h-1.9L543.5,41.5z M544.2,39.6l0.2,0.4h-0.3L544.2,39.6z M546.2,56.9h4.9l0.2,0.5h-4.9
		L546.2,56.9z M547.1,59.1h4.9l0.3,0.5h-4.9L547.1,59.1z M547.9,61.3h5l0.2,0.5h-5L547.9,61.3z M548.7,63.5h5L554,64h-5L548.7,63.5z
		 M549.6,65.7h5.1l0.2,0.5h-5L549.6,65.7z M550.5,67.9h5.1l0.3,0.5h-5.1L550.5,67.9z M551.3,70.1h5.2l0.2,0.5h-5.1L551.3,70.1z
		 M552.2,72.3h5.2l0.3,0.5h-5.2L552.2,72.3z M558.3,74.5l0.2,0.5h-5.2l-0.3-0.5H558.3z M559.1,76.7l0.3,0.5H554l-0.3-0.5H559.1z
		 M560.1,78.9l0.2,0.5H555l-0.3-0.5H560.1z M561,81.2l0.3,0.5h-5.4l-0.3-0.5H561z M561.9,83.4l0.2,0.5h-5.6l-0.3-0.5H561.9z"/>
	<path class="st3" d="M601.9,31.2c10.8,0,18.2,4.7,24.2,12.1l-9.5,10.5c-3.9-4.5-9-7.4-14.7-7.4c-10.1,0-16.5,8.8-16.5,20
		s6.5,20,16.5,20c5.7,0,10.8-2.9,14.7-7.4l9.3,10.5c-5.7,6.9-13.5,12.1-23.9,12.1c-17.9,0-30.7-15.5-30.7-35.3
		C571.3,46.8,584,31.2,601.9,31.2z M601.9,98.7c8.3,0,14.5-3.1,19.8-8.8l-5.3-6.4c-3.4,3.5-8.8,6-14.5,6
		c-12.1,0-20.1-10.1-20.1-23.1s8-23.1,20.1-23.1c5.3,0,10.5,2.3,14.6,5.9l5.3-6c-5-5.9-11.5-9-20-9c-15.7,0-27.2,14.2-27.2,32.2
		C574.8,84.5,586.2,98.7,601.9,98.7z M575.8,64.1h5.1l-0.1,0.5h-5.1L575.8,64.1z M575.7,66.3h5.1v0.5h-5.1V66.3z M575.7,68.5h5.1
		l0.1,0.5h-5.1L575.7,68.5z M576,61.9h5.2l-0.2,0.5h-5.1L576,61.9z M575.9,70.7h5.1l0.2,0.5H576L575.9,70.7z M576.3,59.7h5.3
		l-0.2,0.5h-5.2L576.3,59.7z M576.1,72.9h5.2l0.2,0.5h-5.2L576.1,72.9z M576.7,57.5h5.3l-0.2,0.5h-5.3L576.7,57.5z M576.7,75.1h5.3
		l0.2,0.5H577L576.7,75.1z M577.3,55.3h5.7l-0.3,0.5h-5.4V55.3z M577.2,77.3h5.4l0.3,0.5h-5.7V77.3z M578.1,53.1h5.9l-0.3,0.5h-5.8
		L578.1,53.1z M577.9,79.5h5.8L584,80h-5.9L577.9,79.5z M579,50.9h6.4l-0.3,0.5h-6.4L579,50.9z M578.8,81.8h6.2l0.5,0.5h-6.4
		L578.8,81.8z M580.3,48.7h6.9l-0.6,0.5h-6.8L580.3,48.7z M580,84h6.8l0.5,0.5h-6.9L580,84z M581.6,46.5h7.9l-0.7,0.5h-7.6
		L581.6,46.5z M581.3,86.2h7.5l0.6,0.5h-7.8L581.3,86.2z M583.3,44.3h9.9l-1.3,0.5h-9.1L583.3,44.3z M592.2,88.4l0.9,0.5h-9.7
		l-0.5-0.5H592.2z M585.5,42h16.4v0.2l-3.7,0.3h-13.5L585.5,42z M598.8,90.5c0.9,0,2.2,0.1,3.1,0.2V91h-16.2l-0.6-0.5H598.8
		L598.8,90.5z M588.3,39.8H602v0.5h-14.5L588.3,39.8z M601.9,92.7v0.5h-13.5l-0.7-0.5H601.9z M592.1,37.6h9.8v0.5h-11L592.1,37.6z
		 M601.9,94.9v0.5h-9.6l-1.3-0.5H601.9z M601.9,35.5V36H597C598.7,35.6,599.2,35.5,601.9,35.5z M601.9,97.1v0.3h-0.2l-4.3-0.3H601.9
		z"/>
	<path class="st3" d="M632.8,33.4h13.9v26h22.2v-26h13.8v66.1h-13.8V73.4h-22.2v26.1h-13.9V33.4z M643.2,96.5V70.3h29.2v26.1h6.8
		v-60h-6.8v26h-29.2v-26h-6.8v60L643.2,96.5L643.2,96.5z M637.3,37.5h5V38h-5V37.5z M637.3,39.7h5v0.5h-5V39.7z M637.3,41.9h5v0.5
		h-5V41.9z M637.3,44.1h5v0.5h-5V44.1z M637.3,46.4h5v0.5h-5V46.4z M637.3,48.6h5v0.5h-5V48.6z M637.3,50.8h5v0.5h-5V50.8z
		 M637.3,53h5v0.5h-5V53z M637.3,55.2h5v0.5h-5V55.2z M637.3,57.4h5v0.5h-5V57.4z M637.3,59.6h5v0.5h-5V59.6z M637.3,61.8h5v0.5h-5
		V61.8z M637.3,64h41v0.5h-41V64z M637.3,66.2h41v0.5h-41V66.2z M637.3,68.4h41v0.5h-41V68.4z M673.2,37.5h5V38h-5V37.5z
		 M673.2,39.7h5v0.5h-5V39.7z M673.2,41.9h5v0.5h-5V41.9z M673.2,44.1h5v0.5h-5V44.1z M673.2,46.4h5v0.5h-5V46.4z M673.2,48.6h5v0.5
		h-5V48.6z M673.2,50.8h5v0.5h-5V50.8z M673.2,53h5v0.5h-5V53z M673.2,55.2h5v0.5h-5V55.2z M673.2,57.4h5v0.5h-5V57.4z M673.2,59.6
		h5v0.5h-5V59.6z M673.2,61.8h5v0.5h-5V61.8z"/>
	<path class="st3" d="M691.7,33.4h13.9v66.1h-13.9V33.4z M702,96.5v-60h-6.8v60H702z M696.1,37.5h5V38h-5V37.5z M696.1,39.7h5v0.5
		h-5V39.7z M696.1,41.9h5v0.5h-5V41.9z M696.1,44.1h5v0.5h-5V44.1z M696.1,46.4h5v0.5h-5V46.4z M696.1,48.6h5v0.5h-5V48.6z
		 M696.1,50.8h5v0.5h-5V50.8z M696.1,53h5v0.5h-5V53z M696.1,55.2h5v0.5h-5V55.2z M696.1,57.4h5v0.5h-5V57.4z M696.1,59.6h5v0.5h-5
		V59.6z M696.1,61.8h5v0.5h-5V61.8z M696.1,64h5v0.5h-5V64z M696.1,66.2h5v0.5h-5V66.2z M696.1,68.4h5v0.5h-5V68.4z"/>
	<path class="st3" d="M714.6,33.4h14.6l22,39.2V33.4H765v66.1h-14.5l-22.1-39.2v39.2h-13.9L714.6,33.4L714.6,33.4z M724.9,96.5V49.9
		h1.4l26.3,46.6h8.8v-60h-6.8v46h-1.7l-25.9-46h-9v60H724.9z M720.5,37.7h5.9l0.3,0.5h-6L720.5,37.7z M721.9,39.9h5.8l0.3,0.5h-5.9
		L721.9,39.9z M723.1,42.1h5.8l0.3,0.5h-5.9L723.1,42.1z M724.5,44.4h5.8l0.3,0.5h-5.8L724.5,44.4z M725.6,46.6h5.8l0.3,0.5H726
		L725.6,46.6z M727,48.8h5.7l0.3,0.5h-5.8L727,48.8z M728.2,51h5.8l0.3,0.5h-5.8L728.2,51z M729.4,53.2h5.8l0.3,0.5h-5.8L729.4,53.2
		z M730.7,55.4h5.7l0.3,0.5h-5.8L730.7,55.4z M732,57.6h5.7l0.3,0.5h-5.8L732,57.6z M733.1,59.8h5.7l0.3,0.5h-5.8L733.1,59.8z
		 M734.4,62h5.8l0.3,0.5h-5.8L734.4,62z M735.7,64.2h5.8l0.3,0.5H736L735.7,64.2z M736.8,66.4h5.8l0.3,0.5h-5.8L736.8,66.4z
		 M738.2,68.6h5.7l0.3,0.5h-5.8L738.2,68.6z M739.4,70.8h5.7l0.3,0.5h-5.8L739.4,70.8z M740.7,73h5.7l0.3,0.5h-5.8L740.7,73z
		 M741.8,75.2h5.8l0.3,0.5h-5.8L741.8,75.2z M748.9,77.4l0.3,0.5h-5.8l-0.3-0.5H748.9z M750,79.6l0.3,0.5h-5.8l-0.3-0.5H750z
		 M751.3,81.8l0.3,0.5h-5.8l-0.3-0.5H751.3z M752.7,84.1l0.3,0.5h-5.9l-0.3-0.5H752.7z M754.1,86.3l0.5,0.5h-6.1l-0.3-0.5H754.1z
		 M755.5,88.5L756,89h-6.4l-0.3-0.5H755.5z M756.9,90.7l0.3,0.5h-6.4l-0.3-0.5H756.9z M758.2,92.9l0.5,0.5h-6.6l-0.3-0.5H758.2z
		 M759.5,94.8l0.5,0.5h-6.8l-0.3-0.5H759.5z"/>
	<path class="st3" d="M774,33.4h37.5v14.3h-23.6v11.9h21.8v14.2h-21.8v11.9h24.6v13.8H774V33.4z M808.9,96.5v-7.7h-24.6V70.7h21.9
		v-7.9h-21.8v-18H808v-8.1h-30.4v60H809L808.9,96.5L808.9,96.5z M779.2,94.6H808v0.5h-29.3L779.2,94.6z M778.8,38H807v0.5h-27.8
		L778.8,38z M780.7,40.2H807v0.5h-25.8L780.7,40.2z M781.1,92.4H808V93h-27.3L781.1,92.4z M782.5,42.4h24.4V43H783L782.5,42.4z
		 M783.1,90.2H808v0.5h-25.5L783.1,90.2z M784.4,64.2h20.8v0.5h-20.8V64.2z M784.4,66.4h20.8v0.5h-20.8V66.4z M784.4,68.6h20.8v0.5
		h-20.8V68.6z"/>
</g>
</svg>
